<svg width="32" height="32" viewBox="0 0 32 32" fill="none" xmlns="http://www.w3.org/2000/svg">
<circle cx="16.5" cy="16.5" r="12.5" fill="url(#paint0_linear_3_5)"/>
<path d="M7.79297 11.4688V20H6.66211V11.4688H7.79297ZM11.3672 15.3066V16.2324H7.54688V15.3066H11.3672ZM11.9473 11.4688V12.3945H7.54688V11.4688H11.9473ZM15.457 12.2246L12.6328 20H11.4785L14.7305 11.4688H15.4746L15.457 12.2246ZM17.8242 20L14.9941 12.2246L14.9766 11.4688H15.7207L18.9844 20H17.8242ZM17.6777 16.8418V17.7676H12.8848V16.8418H17.6777ZM24.4336 19.0215L26.6016 20.7383L25.8398 21.4414L23.707 19.748L24.4336 19.0215ZM26.5723 15.4648V16.0039C26.5723 16.6445 26.4922 17.2188 26.332 17.7266C26.1719 18.2344 25.9414 18.666 25.6406 19.0215C25.3398 19.377 24.9785 19.6484 24.5566 19.8359C24.1387 20.0234 23.6699 20.1172 23.1504 20.1172C22.6465 20.1172 22.1836 20.0234 21.7617 19.8359C21.3438 19.6484 20.9805 19.377 20.6719 19.0215C20.3672 18.666 20.1309 18.2344 19.9629 17.7266C19.7949 17.2188 19.7109 16.6445 19.7109 16.0039V15.4648C19.7109 14.8242 19.793 14.252 19.957 13.748C20.125 13.2402 20.3613 12.8086 20.666 12.4531C20.9707 12.0938 21.332 11.8203 21.75 11.6328C22.1719 11.4453 22.6348 11.3516 23.1387 11.3516C23.6582 11.3516 24.1289 11.4453 24.5508 11.6328C24.9727 11.8203 25.334 12.0938 25.6348 12.4531C25.9355 12.8086 26.166 13.2402 26.3262 13.748C26.4902 14.252 26.5723 14.8242 26.5723 15.4648ZM25.4531 16.0039V15.4531C25.4531 14.9453 25.4004 14.4961 25.2949 14.1055C25.1934 13.7148 25.043 13.3867 24.8438 13.1211C24.6445 12.8555 24.4023 12.6543 24.1172 12.5176C23.832 12.3809 23.5059 12.3125 23.1387 12.3125C22.791 12.3125 22.4746 12.3809 22.1895 12.5176C21.9082 12.6543 21.666 12.8555 21.4629 13.1211C21.2598 13.3867 21.1035 13.7148 20.9941 14.1055C20.8848 14.4961 20.8301 14.9453 20.8301 15.4531V16.0039C20.8301 16.5156 20.8848 16.9688 20.9941 17.3633C21.1035 17.7539 21.2598 18.084 21.4629 18.3535C21.6699 18.6191 21.916 18.8203 22.2012 18.957C22.4863 19.0938 22.8027 19.1621 23.1504 19.1621C23.5176 19.1621 23.8438 19.0938 24.1289 18.957C24.4141 18.8203 24.6543 18.6191 24.8496 18.3535C25.0488 18.084 25.1992 17.7539 25.3008 17.3633C25.4023 16.9688 25.4531 16.5156 25.4531 16.0039Z" fill="#A0A0A0"/>
<defs>
<linearGradient id="paint0_linear_3_5" x1="10" y1="26" x2="25.5" y2="6.5" gradientUnits="userSpaceOnUse">
<stop stop-color="#570076"/>
<stop offset="1" stop-color="#A300F0"/>
</linearGradient>
</defs>
</svg>
